<mxfile host="app.diagrams.net" modified="2024-05-10T06:34:11.600Z" agent="Mozilla/5.0 (Windows NT 10.0; Win64; x64) AppleWebKit/537.36 (KHTML, like Gecko) Chrome/124.0.0.0 Safari/537.36" etag="vzoSigskVVOMuFSZ5uFf" version="24.3.1" type="github">
  <diagram name="Page-1" id="58cdce13-f638-feb5-8d6f-7d28b1aa9fa0">
    <mxGraphModel dx="921" dy="1259" grid="1" gridSize="10" guides="1" tooltips="1" connect="1" arrows="1" fold="1" page="1" pageScale="1" pageWidth="1100" pageHeight="850" background="none" math="0" shadow="0">
      <root>
        <mxCell id="0" />
        <mxCell id="1" parent="0" />
        <mxCell id="bODNwZ9Zfx-MyW0XW454-9" value="꺼짐" style="swimlane;fontStyle=1;align=center;verticalAlign=middle;childLayout=stackLayout;horizontal=1;startSize=30;horizontalStack=0;resizeParent=0;resizeLast=1;container=0;fontColor=#000000;collapsible=0;rounded=1;arcSize=30;strokeColor=#ff0000;fillColor=#ffffc0;swimlaneFillColor=#ffffc0;dropTarget=0;" vertex="1" parent="1">
          <mxGeometry x="100" y="-590" width="160" height="60" as="geometry" />
        </mxCell>
        <mxCell id="bODNwZ9Zfx-MyW0XW454-11" value="" style="edgeStyle=orthogonalEdgeStyle;html=1;verticalAlign=bottom;endArrow=open;endSize=8;strokeColor=#ff0000;rounded=0;fontSize=12;curved=1;" edge="1" source="bODNwZ9Zfx-MyW0XW454-9" parent="1" target="bODNwZ9Zfx-MyW0XW454-12">
          <mxGeometry relative="1" as="geometry">
            <mxPoint x="180" y="-470" as="targetPoint" />
            <Array as="points">
              <mxPoint x="180" y="-700" />
            </Array>
          </mxGeometry>
        </mxCell>
        <mxCell id="bODNwZ9Zfx-MyW0XW454-20" value="온도 &amp;lt; 18" style="edgeLabel;html=1;align=center;verticalAlign=middle;resizable=0;points=[];fontSize=12;" vertex="1" connectable="0" parent="bODNwZ9Zfx-MyW0XW454-11">
          <mxGeometry x="-0.3915" y="-30" relative="1" as="geometry">
            <mxPoint x="-30" y="-1" as="offset" />
          </mxGeometry>
        </mxCell>
        <mxCell id="bODNwZ9Zfx-MyW0XW454-12" value="난방" style="swimlane;fontStyle=1;align=center;verticalAlign=middle;childLayout=stackLayout;horizontal=1;startSize=30;horizontalStack=0;resizeParent=0;resizeLast=1;container=0;fontColor=#000000;collapsible=0;rounded=1;arcSize=30;strokeColor=#ff0000;fillColor=#ffffc0;swimlaneFillColor=#ffffc0;dropTarget=0;" vertex="1" parent="1">
          <mxGeometry x="330" y="-730" width="160" height="60" as="geometry" />
        </mxCell>
        <mxCell id="bODNwZ9Zfx-MyW0XW454-14" value="" style="edgeStyle=orthogonalEdgeStyle;html=1;verticalAlign=bottom;endArrow=open;endSize=8;strokeColor=#ff0000;rounded=0;fontSize=12;curved=1;" edge="1" target="bODNwZ9Zfx-MyW0XW454-9" parent="1" source="bODNwZ9Zfx-MyW0XW454-12">
          <mxGeometry relative="1" as="geometry">
            <mxPoint x="400" y="-470" as="targetPoint" />
            <mxPoint x="480" y="-560" as="sourcePoint" />
            <Array as="points">
              <mxPoint x="410" y="-580" />
            </Array>
          </mxGeometry>
        </mxCell>
        <mxCell id="bODNwZ9Zfx-MyW0XW454-22" value="온도 &amp;gt; 22" style="edgeLabel;html=1;align=center;verticalAlign=middle;resizable=0;points=[];fontSize=12;" vertex="1" connectable="0" parent="bODNwZ9Zfx-MyW0XW454-14">
          <mxGeometry x="-0.4815" y="-25" relative="1" as="geometry">
            <mxPoint x="35" as="offset" />
          </mxGeometry>
        </mxCell>
        <mxCell id="bODNwZ9Zfx-MyW0XW454-15" value="냉방" style="swimlane;fontStyle=1;align=center;verticalAlign=middle;childLayout=stackLayout;horizontal=1;startSize=30;horizontalStack=0;resizeParent=0;resizeLast=1;container=0;fontColor=#000000;collapsible=0;rounded=1;arcSize=30;strokeColor=#ff0000;fillColor=#ffffc0;swimlaneFillColor=#ffffc0;dropTarget=0;" vertex="1" parent="1">
          <mxGeometry x="340" y="-470" width="160" height="60" as="geometry" />
        </mxCell>
        <mxCell id="bODNwZ9Zfx-MyW0XW454-17" value="" style="ellipse;html=1;shape=startState;fillColor=#000000;strokeColor=#ff0000;" vertex="1" parent="1">
          <mxGeometry x="10" y="-575" width="30" height="30" as="geometry" />
        </mxCell>
        <mxCell id="bODNwZ9Zfx-MyW0XW454-18" value="" style="edgeStyle=orthogonalEdgeStyle;html=1;verticalAlign=bottom;endArrow=open;endSize=8;strokeColor=#ff0000;rounded=0;fontSize=12;curved=1;" edge="1" source="bODNwZ9Zfx-MyW0XW454-17" parent="1" target="bODNwZ9Zfx-MyW0XW454-9">
          <mxGeometry relative="1" as="geometry">
            <mxPoint x="125" y="-460" as="targetPoint" />
          </mxGeometry>
        </mxCell>
        <mxCell id="bODNwZ9Zfx-MyW0XW454-19" value="" style="edgeStyle=orthogonalEdgeStyle;html=1;verticalAlign=bottom;endArrow=open;endSize=8;strokeColor=#ff0000;rounded=0;fontSize=12;curved=1;" edge="1" parent="1" source="bODNwZ9Zfx-MyW0XW454-9" target="bODNwZ9Zfx-MyW0XW454-15">
          <mxGeometry relative="1" as="geometry">
            <mxPoint x="330" y="-385" as="targetPoint" />
            <mxPoint x="320" y="-630" as="sourcePoint" />
            <Array as="points">
              <mxPoint x="180" y="-440" />
            </Array>
          </mxGeometry>
        </mxCell>
        <mxCell id="bODNwZ9Zfx-MyW0XW454-23" value="온도 &amp;gt; 26" style="edgeLabel;html=1;align=center;verticalAlign=middle;resizable=0;points=[];fontSize=12;" vertex="1" connectable="0" parent="bODNwZ9Zfx-MyW0XW454-19">
          <mxGeometry x="0.0783" y="21" relative="1" as="geometry">
            <mxPoint x="-40" as="offset" />
          </mxGeometry>
        </mxCell>
        <mxCell id="bODNwZ9Zfx-MyW0XW454-21" value="" style="edgeStyle=orthogonalEdgeStyle;html=1;verticalAlign=bottom;endArrow=open;endSize=8;strokeColor=#ff0000;rounded=0;fontSize=12;curved=1;" edge="1" parent="1" source="bODNwZ9Zfx-MyW0XW454-15" target="bODNwZ9Zfx-MyW0XW454-9">
          <mxGeometry relative="1" as="geometry">
            <mxPoint x="270" y="-570" as="targetPoint" />
            <mxPoint x="420" y="-660" as="sourcePoint" />
            <Array as="points">
              <mxPoint x="420" y="-550" />
            </Array>
          </mxGeometry>
        </mxCell>
        <mxCell id="bODNwZ9Zfx-MyW0XW454-24" value="온도 &amp;lt; 22" style="edgeLabel;html=1;align=center;verticalAlign=middle;resizable=0;points=[];fontSize=12;" vertex="1" connectable="0" parent="bODNwZ9Zfx-MyW0XW454-21">
          <mxGeometry x="-0.1034" y="20" relative="1" as="geometry">
            <mxPoint y="-15" as="offset" />
          </mxGeometry>
        </mxCell>
      </root>
    </mxGraphModel>
  </diagram>
</mxfile>
